<svg id="Group_60224" data-name="Group 60224" xmlns="http://www.w3.org/2000/svg" width="36" height="36" viewBox="0 0 36 36">
  <g id="Group_46253" data-name="Group 46253">
    <path id="Path_163903" data-name="Path 163903" d="M64.888,72.159A17.988,17.988,0,0,1,51.11,89.649a17.435,17.435,0,0,1-4.223.51c-.4,0-.8-.015-1.2-.045a18,18,0,1,1,19.2-17.955Z" transform="translate(-28.888 -54.159)" fill="#1e4fad"/>
  </g>
  <path id="Path_163905" data-name="Path 163905" d="M52.816,69.671c-.021.763-.031,2.531-.031,2.531h3.508c-.159,1.219-.312,2.393-.466,3.571H52.811v8.116a11.866,11.866,0,0,1-2.879.349c-.276,0-.547-.01-.818-.031V75.763H46.091V72.2h3.043v-.267c0-.717-.016-1.43,0-2.147a10.225,10.225,0,0,1,.112-1.368,4,4,0,0,1,1.6-2.659,4.61,4.61,0,0,1,2.659-.82c.629-.015,1.253.016,1.882.041.343.021.685.067,1.007.1v3.187h-.25c-.614,0-1.222-.015-1.836.005C53.465,68.3,52.846,68.621,52.816,69.671Z" transform="translate(-33.241 -56.588)" fill="#fff" fill-rule="evenodd"/>
</svg>
