<svg id="Group_60225" data-name="Group 60225" xmlns="http://www.w3.org/2000/svg" xmlns:xlink="http://www.w3.org/1999/xlink" width="36" height="36" viewBox="0 0 36 36">
  <defs>
    <linearGradient id="linear-gradient" x1="-0.042" y1="-0.042" x2="1.247" y2="1.247" gradientUnits="objectBoundingBox">
      <stop offset="0.011" stop-color="#3542e0"/>
      <stop offset="0.175" stop-color="#3741de"/>
      <stop offset="0.274" stop-color="#3f3fda"/>
      <stop offset="0.357" stop-color="#4e3cd2"/>
      <stop offset="0.43" stop-color="#6237c7"/>
      <stop offset="0.497" stop-color="#7d31b9"/>
      <stop offset="0.559" stop-color="#9d29a7"/>
      <stop offset="0.617" stop-color="#c32193"/>
      <stop offset="0.624" stop-color="#c82091"/>
      <stop offset="0.761" stop-color="#f62b37"/>
      <stop offset="1" stop-color="#ffc658"/>
    </linearGradient>
  </defs>
  <g id="Group_46281" data-name="Group 46281">
    <circle id="Ellipse_1603" data-name="Ellipse 1603" cx="18" cy="18" r="18" fill="url(#linear-gradient)"/>
    <g id="Group_46258" data-name="Group 46258" transform="translate(9.099 9.959)">
      <path id="Path_163909" data-name="Path 163909" d="M236,67.934a4.726,4.726,0,0,0-1.439-3.038,4.936,4.936,0,0,0-3.264-1.325,64.188,64.188,0,0,0-8.8.1,4.493,4.493,0,0,0-3.852,3.457c-.424,1.515-.34,8.5-.092,9.993A4.506,4.506,0,0,0,222.122,81a52.752,52.752,0,0,0,9.854.065,4.514,4.514,0,0,0,3.9-3.56C236.282,75.952,236.14,69.337,236,67.934Zm-1.639,8.9a3.014,3.014,0,0,1-2.834,2.689c-1.436.158-7.849.244-9.18-.128a2.919,2.919,0,0,1-2.214-2.515,59.579,59.579,0,0,1,0-8.984,3.009,3.009,0,0,1,2.821-2.677,62.775,62.775,0,0,1,8.763.036,3.014,3.014,0,0,1,2.684,2.838A63.9,63.9,0,0,1,234.359,76.83ZM227.242,67.8a4.564,4.564,0,1,0,4.562,4.567A4.564,4.564,0,0,0,227.242,67.8Zm-.032,7.514a2.952,2.952,0,1,1,2.978-2.925A2.952,2.952,0,0,1,227.211,75.318Zm5.843-7.686a1.069,1.069,0,1,1-1.066-1.072A1.068,1.068,0,0,1,233.053,67.632Z" transform="translate(-218.339 -63.47)" fill="#fff"/>
      <path id="Path_163910" data-name="Path 163910" d="M236,67.934a4.726,4.726,0,0,0-1.439-3.038,4.936,4.936,0,0,0-3.264-1.325,64.188,64.188,0,0,0-8.8.1,4.493,4.493,0,0,0-3.852,3.457c-.424,1.515-.34,8.5-.092,9.993A4.506,4.506,0,0,0,222.122,81a52.752,52.752,0,0,0,9.854.065,4.514,4.514,0,0,0,3.9-3.56C236.282,75.952,236.14,69.337,236,67.934Zm-1.639,8.9a3.014,3.014,0,0,1-2.834,2.689c-1.436.158-7.849.244-9.18-.128a2.919,2.919,0,0,1-2.214-2.515,59.579,59.579,0,0,1,0-8.984,3.009,3.009,0,0,1,2.821-2.677,62.775,62.775,0,0,1,8.763.036,3.014,3.014,0,0,1,2.684,2.838A63.9,63.9,0,0,1,234.359,76.83ZM227.242,67.8a4.564,4.564,0,1,0,4.562,4.567A4.564,4.564,0,0,0,227.242,67.8Zm-.032,7.514a2.952,2.952,0,1,1,2.978-2.925A2.952,2.952,0,0,1,227.211,75.318Zm5.843-7.686a1.069,1.069,0,1,1-1.066-1.072A1.068,1.068,0,0,1,233.053,67.632Z" transform="translate(-218.339 -63.47)" fill="#fff"/>
    </g>
  </g>
</svg>
