<svg xmlns="http://www.w3.org/2000/svg" xmlns:xlink="http://www.w3.org/1999/xlink" width="150" height="81" viewBox="0 0 150 81">
  <defs>
    <clipPath id="clip-path">
      <rect id="Rectangle_16439" data-name="Rectangle 16439" width="150" height="81" transform="translate(0.378 0.156)" fill="#fff" stroke="#707070" stroke-width="1"/>
    </clipPath>
  </defs>
  <g id="Mask_Group_12524" data-name="Mask Group 12524" transform="translate(-0.378 -0.156)" clip-path="url(#clip-path)">
    <g id="IMTG_Logo-01" data-name="IMTG Logo-01" transform="translate(0.951 1.265)">
      <path id="Path_163967" data-name="Path 163967" d="M4.537,85.328,6.6,82.284a11.281,11.281,0,0,0,6.134,2.226,7.91,7.91,0,0,0,4.08-.893A2.584,2.584,0,0,0,18.309,81.4q0-2.606-3.771-2.607a14.76,14.76,0,0,0-2.325.325,14.619,14.619,0,0,1-2.623.317q-4.57,0-4.57-3.448a2.448,2.448,0,0,1,1.07-1.92,6.592,6.592,0,0,1,2.657-1.244,7.5,7.5,0,0,1-4.529-7.374,7.439,7.439,0,0,1,2.346-5.607,8.022,8.022,0,0,1,5.79-2.249,8.221,8.221,0,0,1,4.952,1.3l1.9-2.286,2.486,2.346-2.288,1.718a7.931,7.931,0,0,1,1.463,4.976A7.755,7.755,0,0,1,18.849,71.1a8.011,8.011,0,0,1-5.316,2.533l-3.143.317a6.214,6.214,0,0,0-1.5.43c-.631.247-.949.568-.949.971q0,.824,1.967.822a17.916,17.916,0,0,0,2.684-.306,17.733,17.733,0,0,1,2.706-.314,7.378,7.378,0,0,1,4.941,1.516,5.211,5.211,0,0,1,1.78,4.192,5.568,5.568,0,0,1-2.664,4.789,11.573,11.573,0,0,1-6.721,1.823,14.4,14.4,0,0,1-4.391-.739,12.43,12.43,0,0,1-3.708-1.8Zm8.075-24.667a4.142,4.142,0,0,0-3.235,1.4,4.956,4.956,0,0,0-1.249,3.411A5.644,5.644,0,0,0,9.34,69.186a4.013,4.013,0,0,0,3.272,1.475,3.829,3.829,0,0,0,3.17-1.435,5.859,5.859,0,0,0,1.145-3.754,5.01,5.01,0,0,0-1.232-3.411,3.937,3.937,0,0,0-3.083-1.4Z" transform="translate(-4.215 -9.09)" fill="#00ae4d"/>
      <path id="Path_163968" data-name="Path 163968" d="M31.133,76.76q-2.283,2.864-6.989,2.869a6.037,6.037,0,0,1-4.386-1.834,6.176,6.176,0,0,1-1.853-4.561,6.8,6.8,0,0,1,2.86-5.522,11.367,11.367,0,0,1,7.285-2.252,8.626,8.626,0,0,1,2.723.515q0-5.206-4.649-5.2a7.453,7.453,0,0,0-5.492,1.92L19.03,59.5a9.346,9.346,0,0,1,3-1.506,11.547,11.547,0,0,1,3.657-.635q4.668,0,6.786,2.122t2.116,6.754v7.7c0,1.883.557,3.134,1.681,3.758v1.909a7.114,7.114,0,0,1-3.478-.665A3.74,3.74,0,0,1,31.133,76.76Zm-.36-8.077a13.951,13.951,0,0,0-2.523-.4,7.228,7.228,0,0,0-4.715,1.487,4.4,4.4,0,0,0-1.815,3.5q0,3.345,3.945,3.343a6.483,6.483,0,0,0,5.108-2.742Z" transform="translate(0.07 -8.856)" fill="#00ae4d"/>
      <path id="Path_163969" data-name="Path 163969" d="M44.76,61.432a4.326,4.326,0,0,0-2.5-.863,4.458,4.458,0,0,0-3.538,1.86,6.9,6.9,0,0,0-1.514,4.49V79.606H33.4V57.745h3.807v3.444a6.674,6.674,0,0,1,6.189-3.829,17.457,17.457,0,0,1,2.95.362Z" transform="translate(4.92 -8.856)" fill="#00ae4d"/>
      <path id="Path_163970" data-name="Path 163970" d="M57.211,83.136v-2.01a7.828,7.828,0,0,1-5.773,1.987,8.232,8.232,0,0,1-6.53-2.884,11.331,11.331,0,0,1-2.507-7.7,12.349,12.349,0,0,1,2.886-8.249,8.741,8.741,0,0,1,6.878-3.418,7.279,7.279,0,0,1,5.047,1.565V46.156h3.807v36.98Zm0-16.9a4.508,4.508,0,0,0-3.95-2.163A6.134,6.134,0,0,0,48.3,66.359a8.756,8.756,0,0,0-1.892,5.809q0,7.761,7.053,7.759a5.549,5.549,0,0,0,2.164-.568,3.117,3.117,0,0,0,1.583-1.221Z" transform="translate(7.738 -12.363)" fill="#00ae4d"/>
      <path id="Path_163971" data-name="Path 163971" d="M77.143,68.866H61.673a7.755,7.755,0,0,0,2.066,5.794,6.474,6.474,0,0,0,4.688,1.76,8.006,8.006,0,0,0,5.448-1.9l1.6,2.742a7.23,7.23,0,0,1-2.7,1.524,14.778,14.778,0,0,1-5.1.844,9.489,9.489,0,0,1-6.87-2.749,10.712,10.712,0,0,1-3.143-8.133,11.467,11.467,0,0,1,3.222-8.517,9.352,9.352,0,0,1,6.833-2.869,9.754,9.754,0,0,1,7.193,2.589,8.833,8.833,0,0,1,2.531,6.59,8.691,8.691,0,0,1-.3,2.327Zm-9.239-8.3A6.011,6.011,0,0,0,61.772,66.1H73.657a5.4,5.4,0,0,0-1.449-3.852,5.628,5.628,0,0,0-4.3-1.681Z" transform="translate(12.517 -8.856)" fill="#00ae4d"/>
      <path id="Path_163972" data-name="Path 163972" d="M86.987,79.629V66.741c0-2.283-.344-3.885-1.037-4.8A4.035,4.035,0,0,0,82.5,60.569a5.629,5.629,0,0,0-2.724.777,6.092,6.092,0,0,0-2.187,1.924V79.629H73.78L73.8,57.745H76.4l1.183,2.783q1.885-3.166,6.154-3.168,7.056,0,7.053,8.577V79.629Z" transform="translate(17.561 -8.856)" fill="#00ae4d"/>
      <path id="Path_163973" data-name="Path 163973" d="M107.267,68.866H91.8a7.755,7.755,0,0,0,2.066,5.794,6.5,6.5,0,0,0,4.69,1.76,8.006,8.006,0,0,0,5.45-1.9l1.6,2.742a7.2,7.2,0,0,1-2.7,1.524,14.783,14.783,0,0,1-5.092.844,9.509,9.509,0,0,1-6.873-2.749,10.762,10.762,0,0,1-3.151-8.133,11.453,11.453,0,0,1,3.23-8.517A9.353,9.353,0,0,1,97.85,57.36a9.776,9.776,0,0,1,7.2,2.589,8.859,8.859,0,0,1,2.52,6.59A8.4,8.4,0,0,1,107.267,68.866Zm-9.233-8.3A6.012,6.012,0,0,0,91.9,66.1h11.883a5.424,5.424,0,0,0-1.44-3.852,5.64,5.64,0,0,0-4.309-1.681Z" transform="translate(21.946 -8.856)" fill="#00ae4d"/>
      <path id="Path_163974" data-name="Path 163974" d="M115.5,61.432a4.346,4.346,0,0,0-2.5-.863,4.462,4.462,0,0,0-3.54,1.86,6.88,6.88,0,0,0-1.515,4.49V79.628h-3.807V57.745h3.807v3.444a6.676,6.676,0,0,1,6.192-3.829,17.423,17.423,0,0,1,2.944.362Z" transform="translate(27.064 -8.856)" fill="#00ae4d"/>
      <path id="Path_163975" data-name="Path 163975" d="M46.592,44.1a4.859,4.859,0,0,1-7.106,1.834c-.252-.157-.232-.254-.095-.471a4.783,4.783,0,0,1,4.217-2.409A5.13,5.13,0,0,1,46.592,44.1Z" transform="translate(6.765 -13.333)" fill="#f58220" fill-rule="evenodd"/>
      <path id="Path_163976" data-name="Path 163976" d="M41.251,39.785a4.753,4.753,0,0,1,7.382,1.05A4.784,4.784,0,0,1,41.251,39.785Z" transform="translate(7.378 -14.767)" fill="#f58220" fill-rule="evenodd"/>
      <path id="Path_163977" data-name="Path 163977" d="M53.741,31.9a4.758,4.758,0,0,1-1.3-7.169c.14-.172.252-.217.461-.06a4.841,4.841,0,0,1,2.1,3.736A4.981,4.981,0,0,1,53.741,31.9Z" transform="translate(10.54 -19.118)" fill="#00ae4d" fill-rule="evenodd"/>
      <path id="Path_163978" data-name="Path 163978" d="M48.69,30.355a4.087,4.087,0,0,1,3.078,5.428,4.008,4.008,0,0,1-3.078-5.428Z" transform="translate(9.619 -17.31)" fill="#f58220" fill-rule="evenodd"/>
      <path id="Path_163979" data-name="Path 163979" d="M42.073,32.673a4.024,4.024,0,0,1,5.372,3.067,4.022,4.022,0,0,1-5.372-3.067Z" transform="translate(7.635 -16.662)" fill="#f58220" fill-rule="evenodd"/>
      <path id="Path_163980" data-name="Path 163980" d="M43.244,28a3.594,3.594,0,0,1,3.594,3.613A3.486,3.486,0,0,1,43.244,28Z" transform="translate(8.001 -18.045)" fill="#f58220" fill-rule="evenodd"/>
      <path id="Path_163981" data-name="Path 163981" d="M47.988,25.154A3.59,3.59,0,0,1,50.235,29.7,3.488,3.488,0,0,1,47.988,25.154Z" transform="translate(9.415 -18.938)" fill="#00ae4d" fill-rule="evenodd"/>
      <path id="Path_163982" data-name="Path 163982" d="M42.538,41.71a3.543,3.543,0,0,1-5,.041A3.522,3.522,0,0,1,42.538,41.71Z" transform="translate(6.215 -14.074)" fill="#00ae4d" fill-rule="evenodd"/>
      <path id="Path_163983" data-name="Path 163983" d="M39.168,35.044a3.481,3.481,0,0,1,4.438,2.193A3.5,3.5,0,0,1,39.168,35.044Z" transform="translate(6.726 -15.898)" fill="#f58220" fill-rule="evenodd"/>
      <path id="Path_163984" data-name="Path 163984" d="M65.914,43.84a4.844,4.844,0,0,0,7.1,1.823c.252-.157.232-.25.093-.467A4.768,4.768,0,0,0,68.9,42.79a5.116,5.116,0,0,0-2.982,1.05Z" transform="translate(15.099 -13.417)" fill="#f58220" fill-rule="evenodd"/>
      <path id="Path_163985" data-name="Path 163985" d="M70.547,39.785a4.761,4.761,0,0,0-7.389,1.05A4.791,4.791,0,0,0,70.547,39.785Z" transform="translate(14.236 -14.767)" fill="#f58220" fill-rule="evenodd"/>
      <path id="Path_163986" data-name="Path 163986" d="M57.168,31.9a4.762,4.762,0,0,0,1.3-7.169c-.14-.172-.252-.217-.469-.06a4.859,4.859,0,0,0-2.1,3.736A4.95,4.95,0,0,0,57.168,31.9Z" transform="translate(11.962 -19.118)" fill="#00ae4d" fill-rule="evenodd"/>
      <path id="Path_163987" data-name="Path 163987" d="M62.206,30.355a4.088,4.088,0,0,0-3.074,5.428,4.008,4.008,0,0,0,3.074-5.428Z" transform="translate(12.892 -17.31)" fill="#f58220" fill-rule="evenodd"/>
      <path id="Path_163988" data-name="Path 163988" d="M69.24,32.673a4.022,4.022,0,0,0-5.37,3.067,4.02,4.02,0,0,0,5.37-3.067Z" transform="translate(14.459 -16.662)" fill="#f58220" fill-rule="evenodd"/>
      <path id="Path_163989" data-name="Path 163989" d="M67.652,28a3.6,3.6,0,0,0-3.6,3.613A3.492,3.492,0,0,0,67.652,28Z" transform="translate(14.516 -18.045)" fill="#f58220" fill-rule="evenodd"/>
      <path id="Path_163990" data-name="Path 163990" d="M62.68,23.859A3.593,3.593,0,0,0,60.431,28.4,3.479,3.479,0,0,0,62.68,23.859Z" transform="translate(13.324 -19.343)" fill="#00ae4d" fill-rule="evenodd"/>
      <path id="Path_163991" data-name="Path 163991" d="M68.69,41.71a3.543,3.543,0,0,0,5,.041A3.522,3.522,0,0,0,68.69,41.71Z" transform="translate(15.968 -14.074)" fill="#00ae4d" fill-rule="evenodd"/>
      <path id="Path_163992" data-name="Path 163992" d="M71.919,35.044a3.479,3.479,0,0,0-4.433,2.193A3.494,3.494,0,0,0,71.919,35.044Z" transform="translate(15.591 -15.898)" fill="#f58220" fill-rule="evenodd"/>
      <path id="Path_163993" data-name="Path 163993" d="M54.627,40.847c-.805-.4-1.524-.74-2.247-1.091a.43.43,0,0,0-.049.071c.684.534,1.366,1.061,2.109,1.636a6.282,6.282,0,0,1-4.8-.818,6.565,6.565,0,0,1-2.785-3.784c-.079-.262-.084-.414.272-.486A6.381,6.381,0,0,1,54.627,40.847Z" transform="translate(9.119 -15.467)" fill="#00ae4d" fill-rule="evenodd"/>
      <path id="Path_163994" data-name="Path 163994" d="M45.98,46.472a6.357,6.357,0,0,1,8.263-3.788c-.859.485-1.668.934-2.469,1.382a.19.19,0,0,0,.025.063c.818-.258,1.636-.519,2.478-.784A6.233,6.233,0,0,1,45.98,46.472Z" transform="translate(8.859 -13.582)" fill="#00ae4d" fill-rule="evenodd"/>
      <path id="Path_163995" data-name="Path 163995" d="M57.452,40.847c.8-.4,1.52-.74,2.247-1.091a.476.476,0,0,1,.049.071c-.686.534-1.366,1.061-2.109,1.636a6.26,6.26,0,0,0,4.791-.818,6.546,6.546,0,0,0,2.792-3.784c.078-.262.08-.414-.272-.486A6.379,6.379,0,0,0,57.452,40.847Z" transform="translate(12.45 -15.467)" fill="#00ae4d" fill-rule="evenodd"/>
      <path id="Path_163996" data-name="Path 163996" d="M66.214,46.472a6.358,6.358,0,0,0-8.263-3.788c.862.485,1.668.934,2.469,1.382a.6.6,0,0,1-.025.063c-.818-.258-1.636-.519-2.479-.784A6.231,6.231,0,0,0,66.214,46.472Z" transform="translate(12.595 -13.582)" fill="#00ae4d" fill-rule="evenodd"/>
      <path id="Path_163997" data-name="Path 163997" d="M55.868,41.1a6.332,6.332,0,0,0-.047-8.943,6.3,6.3,0,0,0-.564,9.074c.129-.926.258-1.812.383-2.693h.073C55.76,39.363,55.813,40.2,55.868,41.1Z" transform="translate(11.241 -16.747)" fill="#00ae4d" fill-rule="evenodd"/>
      <path id="Path_163998" data-name="Path 163998" d="M55.533,20.42a3.594,3.594,0,0,1-.2,5.069A3.484,3.484,0,0,1,55.533,20.42Z" transform="translate(11.474 -20.42)" fill="#f58220" fill-rule="evenodd"/>
      <path id="Path_163999" data-name="Path 163999" d="M53.681,46.156h3.807V56H53.681Z" transform="translate(11.269 -12.363)" fill="#f58220"/>
      <path id="Path_164000" data-name="Path 164000" d="M55.744,40.446a2.428,2.428,0,1,1,0,4.856,2.324,2.324,0,0,1-1.707-.71,2.419,2.419,0,0,1,1.707-4.147Z" transform="translate(11.153 -14.151)" fill="#f58220"/>
      <path id="Path_164001" data-name="Path 164001" d="M49.365,53.158q2.46-.392,4.924-.781a61.172,61.172,0,0,1,10.684-.157q2.4.331,4.8.658a32.424,32.424,0,0,1,12.085,4.486,73.053,73.053,0,0,0-43.1.071,22.013,22.013,0,0,1,4.764-2.481A46.158,46.158,0,0,1,49.365,53.158Z" transform="translate(6.598 -10.515)" fill="#f58220" fill-rule="evenodd"/>
      <path id="Path_164002" data-name="Path 164002" d="M78.527,56.545a4.058,4.058,0,0,1-3.363,1.375,2.853,2.853,0,0,1-2.1-.885,2.947,2.947,0,0,1-.894-2.185A3.267,3.267,0,0,1,73.541,52.2a5.483,5.483,0,0,1,3.5-1.087,4.038,4.038,0,0,1,1.3.254c0-1.666-.736-2.507-2.23-2.507a3.579,3.579,0,0,0-2.64.93l-.768-1.532a4.554,4.554,0,0,1,1.44-.729A5.6,5.6,0,0,1,75.9,47.22a4.434,4.434,0,0,1,3.262,1.024,4.45,4.45,0,0,1,1.018,3.243v3.7A1.883,1.883,0,0,0,80.993,57v.912a3.543,3.543,0,0,1-1.676-.314,1.746,1.746,0,0,1-.79-1.05Zm-.181-3.885a6.808,6.808,0,0,0-1.213-.187,3.488,3.488,0,0,0-2.262.709A2.14,2.14,0,0,0,74,54.867c0,1.076.635,1.606,1.9,1.606a3.1,3.1,0,0,0,2.447-1.315Z" transform="translate(17.055 -12.03)" fill="#f58220"/>
      <path id="Path_164003" data-name="Path 164003" d="M91.5,57.729V51.2c0-1.629-.7-2.439-2.109-2.439a2.091,2.091,0,0,0-1.234.407,2.146,2.146,0,0,0-.8.93v7.628h-1.83V50.4a1.437,1.437,0,0,0-.57-1.2,2.452,2.452,0,0,0-1.514-.434,2.067,2.067,0,0,0-1.173.426,2.605,2.605,0,0,0-.882.934v7.606h-1.83V47.415h1.2l.607,1.192a3.216,3.216,0,0,1,2.645-1.386,3.407,3.407,0,0,1,3.1,1.375,2.364,2.364,0,0,1,1.145-.979,4.051,4.051,0,0,1,1.726-.4,3.207,3.207,0,0,1,2.475.949,3.8,3.8,0,0,1,.876,2.664v6.9Z" transform="translate(19.37 -12.03)" fill="#f58220"/>
      <path id="Path_164004" data-name="Path 164004" d="M95.535,49.492H94.341V48.05h1.194V45.894l1.83-.7V48.05h2.828v1.442H97.365v5.122a2.994,2.994,0,0,0,.437,1.853,1.7,1.7,0,0,0,1.41.549,3.471,3.471,0,0,0,1.454-.355l.268,1.606a10.4,10.4,0,0,1-2.5.288,2.7,2.7,0,0,1-2.064-.908,3.287,3.287,0,0,1-.839-2.3Z" transform="translate(23.997 -12.665)" fill="#f58220"/>
      <path id="Path_164005" data-name="Path 164005" d="M106.158,58.69V52.2a2.73,2.73,0,0,0-.566-1.819,1.99,1.99,0,0,0-1.6-.661,2.6,2.6,0,0,0-1.33.389,3.1,3.1,0,0,0-1.023.908V58.69H99.8V44.15h1.831v5.361a2.721,2.721,0,0,1,1.176-.949,3.984,3.984,0,0,1,1.683-.381,3.23,3.23,0,0,1,2.569,1.079,4.4,4.4,0,0,1,.927,2.944V58.69Z" transform="translate(25.707 -12.991)" fill="#f58220"/>
      <path id="Path_164006" data-name="Path 164006" d="M115.952,52.745h-7.434a3.694,3.694,0,0,0,1,2.783,3.094,3.094,0,0,0,2.255.852,3.852,3.852,0,0,0,2.619-.915l.768,1.318a3.452,3.452,0,0,1-1.3.732,7,7,0,0,1-2.445.4,4.522,4.522,0,0,1-3.3-1.322A5.13,5.13,0,0,1,106.6,52.69a5.52,5.52,0,0,1,1.548-4.095,4.519,4.519,0,0,1,3.284-1.375,4.677,4.677,0,0,1,3.453,1.244,4.223,4.223,0,0,1,1.213,3.168,3.952,3.952,0,0,1-.142,1.113Zm-4.434-3.982a2.841,2.841,0,0,0-2.052.792,2.875,2.875,0,0,0-.9,1.868h5.71a2.616,2.616,0,0,0-.689-1.85A2.706,2.706,0,0,0,111.518,48.763Z" transform="translate(27.834 -12.03)" fill="#f58220"/>
    </g>
  </g>
</svg>
