<svg xmlns="http://www.w3.org/2000/svg" xmlns:xlink="http://www.w3.org/1999/xlink" width="360" height="332" viewBox="0 0 360 332">
  <defs>
    <clipPath id="clip-path">
      <rect id="Rectangle_22044" data-name="Rectangle 22044" width="360" height="332" transform="translate(1679 263)" fill="#fff" stroke="#707070" stroke-width="1" opacity="0.5"/>
    </clipPath>
  </defs>
  <g id="Mask_Group_12787" data-name="Mask Group 12787" transform="translate(-1679 -263)" clip-path="url(#clip-path)">
    <g id="Group_60159" data-name="Group 60159" transform="translate(10.236 -24.981)">
      <path id="Path_233825" data-name="Path 233825" d="M141.831-258.967c6.5-13.066,110.006,18.232,126.2,23.006,30.874,9.1,62.833-10.78,95.094-10.982a78.349,78.349,0,0,1,56.368,23.683c53.437,55.91.137,145.637-61.09,170.266-49.432,19.886-108.656,8.649-151.913-21.962-41.261-29.2-66.668-80.458-71.389-129.9q-.558-5.825-.728-11.6C133.941-230.97,135.338-245.9,141.831-258.967Z" transform="matrix(0.985, 0.174, -0.174, 0.985, 1539.031, 553.811)" fill="#efefef" opacity="0.67"/>
      <g id="Group_48479" data-name="Group 48479" transform="translate(114 72)">
        <g id="Group_16128" data-name="Group 16128" transform="translate(-1015.439 426.922)">
          <path id="Path_48650" data-name="Path 48650" d="M2856.522,18c1.8-4.319,0-91.967,0-91.967l-98.806,31.856L2655.311-75.587l1.08,94.486,100.245,37.255S2854.723,22.319,2856.522,18Z" transform="translate(0.377 23.92)" fill="#fff"/>
          <path id="Path_48649" data-name="Path 48649" d="M2756.619-99.277,2656.568-68.861l1.62,4.679,3.6,2.16,93.766,30.236,9.359-1.8,90.527-29.876,1.62-4.14-2.88-2.34-97.562-30.415Z" transform="translate(0.919 13.234)" fill="#f58220"/>
          <path id="Path_48643" data-name="Path 48643" d="M2757.456,148.667a11.612,11.612,0,0,1-3.854-.676c-18.733-6.488-37.79-13.056-56.218-19.407l-22.887-7.889c-4.419-1.522-8.987-3.1-13.473-4.664a9.208,9.208,0,0,1-6.575-9.2c-.012-27.654-.013-56.844,0-91.863,0-3.36,1.452-5.324,4.7-6.369L2685.678.081c22.6-7.259,45.972-14.764,68.953-22.165a9.215,9.215,0,0,1,2.854-.481,8.255,8.255,0,0,1,2.57.418c13.939,4.5,28.117,9.039,41.83,13.434q8.609,2.759,17.216,5.519,13.615,4.368,27.226,8.748l9.054,2.911c3.83,1.231,5.123,3.015,5.124,7.07q0,16.264,0,32.529v26.04q0,15.977,0,31.955c0,5.467-2.112,8.425-7.282,10.211q-17.406,6.012-34.816,12.017c-18.674,6.443-37.985,13.106-56.972,19.674A12.026,12.026,0,0,1,2757.456,148.667Zm-98.04-126.886c-.013.288-.027.534-.04.754-.024.426-.043.763-.043,1.112q0,41.249.011,82.5c0,3.078.933,4.389,3.834,5.4,4.5,1.564,9.085,3.14,13.515,4.665q3.278,1.128,6.557,2.257l25.093,8.653,39.227,13.526c1.3.447,2.6.885,3.99,1.353l3.437,1.161V91.838q0-4.62,0-9.241c-.006-9.311-.012-18.937.036-28.4.01-1.709-.339-3.525-2.987-4.034a19.772,19.772,0,0,1-2.893-.877c-.471-.169-.958-.344-1.448-.5q-38.355-12.32-76.712-24.635c-2.253-.724-4.509-1.442-6.849-2.186l-4.663-1.486Zm194.813-.815c-.252.072-.48.135-.689.193-.415.115-.774.215-1.134.33l-17.936,5.756c-23.489,7.539-47.778,15.335-71.683,22.949-2.1.669-2.882,1.748-2.877,3.979.046,23.161.044,46.71.042,69.484v19.367l1.27-.349c.246-.067.462-.124.658-.174.385-.1.718-.186,1.051-.3q44.328-15.281,88.654-30.572c3.128-1.079,4.033-2.374,4.033-5.775q0-41-.016-81.994c0-.418-.026-.834-.053-1.276-.014-.218-.028-.45-.04-.7l-.062-1.263Zm-194.995-7.181,1.172,1.164a4.649,4.649,0,0,0,2.027,1.207q11.143,3.586,22.29,7.164c21.535,6.917,43.8,14.068,65.665,21.223a25.252,25.252,0,0,0,7.693,1.51,13.227,13.227,0,0,0,6.19-1.5,2.14,2.14,0,0,1,.34-.11c.1-.027.2-.055.3-.086l15.079-4.839q34.636-11.114,69.271-22.232c1.138-.366,2.287-.754,3.4-1.13q.79-.268,1.581-.533l.679-.227.018-1.886L2759.95-16.992V-5.731q0,18.047-.007,36.094a9.878,9.878,0,0,1-.162,2.1,2.386,2.386,0,0,1-4.615.01,9.9,9.9,0,0,1-.161-2.1q-.012-18.12-.007-36.239V-16.958Z" transform="translate(0 -67.347)"/>
        </g>
        <path id="Path_212535" data-name="Path 212535" d="M2800.226-83.735a2.081,2.081,0,0,1-1.987-1.26c-3.137-6.244-5.962-11.876-8.775-17.582a2.368,2.368,0,0,1-.2-1.826,2.038,2.038,0,0,1,1.085-1.166,2.217,2.217,0,0,1,.974-.237,2.118,2.118,0,0,1,1.867,1.29c2.639,5.2,5.752,11.372,8.835,17.7a2.168,2.168,0,0,1-.042,2.125A2.045,2.045,0,0,1,2800.226-83.735Z" transform="translate(-1096.854 411.869)" stroke="#000" stroke-width="1"/>
        <path id="Path_212536" data-name="Path 212536" d="M3092.028-83.717a2.216,2.216,0,0,1-1.934-.964,2.258,2.258,0,0,1-.056-2.2c.861-1.844,1.8-3.7,2.708-5.49q.586-1.157,1.167-2.315l1.3-2.6c1.125-2.256,2.287-4.588,3.443-6.874a2.509,2.509,0,0,1,2.108-1.639,2.2,2.2,0,0,1,.956.238,1.93,1.93,0,0,1,1.048,1.115,2.8,2.8,0,0,1-.287,2.139c-1.912,3.843-3.868,7.745-5.76,11.519q-1.415,2.822-2.829,5.646a2.182,2.182,0,0,1-1.863,1.429Z" transform="translate(-1311.116 411.866)" stroke="#000" stroke-width="1"/>
        <path id="Path_212537" data-name="Path 212537" d="M2956.982-104.548a2.04,2.04,0,0,1-2.118-2.249c-.045-2.049-.036-4.14-.026-6.162,0-.9.009-1.805.008-2.708l0-2.323c0-2.057-.007-4.184.007-6.274a2.144,2.144,0,0,1,1.344-2.18,2.2,2.2,0,0,1,.878-.2,1.487,1.487,0,0,1,1.157.54,3.227,3.227,0,0,1,.806,1.845c.077,5.085.088,10.474.038,17.472a2.022,2.022,0,0,1-2.043,2.238Z" transform="translate(-1214.93 426.721)" stroke="#000" stroke-width="1"/>
      </g>
    </g>
  </g>
</svg>
