<svg xmlns="http://www.w3.org/2000/svg" xmlns:xlink="http://www.w3.org/1999/xlink" width="360" height="332" viewBox="0 0 360 332">
  <defs>
    <clipPath id="clip-path">
      <rect id="Rectangle_22043" data-name="Rectangle 22043" width="360" height="332" transform="translate(1112 277)" fill="#fff" stroke="#707070" stroke-width="1" opacity="0.5"/>
    </clipPath>
    <clipPath id="clip-path-2">
      <rect id="Rectangle_22038" data-name="Rectangle 22038" width="241.675" height="227.661" transform="translate(0 0)" fill="none"/>
    </clipPath>
  </defs>
  <g id="Mask_Group_12785" data-name="Mask Group 12785" transform="translate(-1112 -277)" clip-path="url(#clip-path)">
    <g id="Group_60157" data-name="Group 60157" transform="translate(9.54 -3.981)">
      <path id="Path_233792" data-name="Path 233792" d="M141.831-258.967c6.5-13.066,110.006,18.232,126.2,23.006,30.874,9.1,62.833-10.78,95.094-10.982a78.349,78.349,0,0,1,56.368,23.683c53.437,55.91.137,145.637-61.09,170.266-49.432,19.886-108.656,8.649-151.913-21.962-41.261-29.2-66.668-80.458-71.389-129.9q-.558-5.825-.728-11.6C133.941-230.97,135.338-245.9,141.831-258.967Z" transform="matrix(0.985, 0.174, -0.174, 0.985, 972.728, 530.811)" fill="#efefef" opacity="0.67"/>
      <g id="Group_60152" data-name="Group 60152" transform="translate(-5314.525 13625.597)">
        <rect id="Rectangle_22040" data-name="Rectangle 22040" width="182.821" height="173.815" transform="translate(6517.316 -13250.751)" fill="#fff"/>
        <path id="Path_233824" data-name="Path 233824" d="M6549.45-13088.517l8.252,11.638,8.252,2.328,6.56,1.058h6.559s4.442,2.326,5.924,4.021,6.771,5.289,8.252,6.56,6.347,4.867,7.617,5.713,12.483,8.039,13.753,8.674,2.962,1.27,4.867,2.329,4.866,1.058,5.713,1.48a24.742,24.742,0,0,0,4.231,1.058c1.058.213,1.693.637,5.079,0s5.5-.635,7.193-2.538,13.331-7.618,14.389-8.464a77.423,77.423,0,0,1,12.483-5.714c2.54-.635,1.058-3.6,7.618-2.538s8.887,2.75,12.272,2.538,11.215.846,12.061,1.482,6.771,2.54,8.463,1.692,3.386-4.867,6.348-6.983,13.33-12.694,14.177-14.387,6.136-10.37,6.771-12.062,2.751-6.136,1.482-7.193-21.794-6.137-22.43-6.349-12.483-4.232-14.811-4.443-8.675-2.964-12.061-4.443-9.945-4.232-9.945-4.232-3.174-3.386-4.231-4.231a14.827,14.827,0,0,0-3.386-2.116,3.875,3.875,0,0,0-2.328,0" transform="translate(2.199 7.645)" fill="#fff"/>
        <g id="Rectangle_22039" data-name="Rectangle 22039" transform="translate(6587.563 -13250.751)" fill="#f58220" stroke="#707070" stroke-width="1">
          <rect width="38.726" height="38.726" stroke="none"/>
          <rect x="0.5" y="0.5" width="37.726" height="37.726" fill="none"/>
        </g>
        <g id="Ellipse_16686" data-name="Ellipse 16686" transform="translate(6667.715 -13216.528)" fill="#fff" stroke="#707070" stroke-width="1">
          <circle cx="40.977" cy="40.977" r="40.977" stroke="none"/>
          <circle cx="40.977" cy="40.977" r="40.477" fill="none"/>
        </g>
        <g id="Group_60151" data-name="Group 60151" transform="translate(6511.512 -13255.739)">
          <g id="Group_60150" data-name="Group 60150" transform="translate(0 0)" clip-path="url(#clip-path-2)">
            <path id="Path_233800" data-name="Path 233800" d="M1095.561,1923.834h0Z" transform="translate(-968.807 -1701.25)" fill="#fff"/>
            <path id="Path_233810" data-name="Path 233810" d="M1023.428,1943.63a1.341,1.341,0,0,0,.006-2.682l0-.074v.074a1.341,1.341,0,1,0,0,2.682" transform="translate(-903.834 -1716.319)" fill="#1a1818"/>
            <path id="Path_233817" data-name="Path 233817" d="M1022.3,1943.214a1.488,1.488,0,1,1,1.489-1.485,1.489,1.489,0,0,1-1.489,1.485" transform="translate(-902.709 -1715.756)" fill="#fff"/>
            <path id="Path_233818" data-name="Path 233818" d="M1027.308,1949.027a.042.042,0,0,0-.018.012.024.024,0,0,0-.009.01s0,.018.037.055l.441.442c.043.043.058.049.061.05a.258.258,0,0,0,.062-.052l.928-.929.009-.009a.227.227,0,0,0,.033-.038.03.03,0,0,0,0-.029s0-.005-.005-.005a.124.124,0,0,0-.066.035c-.207.2-.409.406-.649.648-.057.057-.111.116-.169.178l-.138.146-.183-.185-.288-.292c-.033-.034-.045-.035-.046-.035" transform="translate(-908.426 -1723.091)" fill="#fff"/>
            <path id="Path_233819" data-name="Path 233819" d="M1022.866,1943.7a1.415,1.415,0,1,1,1.415-1.412,1.415,1.415,0,0,1-1.415,1.412" transform="translate(-903.272 -1716.318)" fill="#fff"/>
            <path id="Path_233820" data-name="Path 233820" d="M1027.261,1948.871l-.417-.423c-.049-.051-.1-.084-.166-.027s-.043.1.025.173q.22.222.441.442c.1.1.13.095.227,0l.928-.929a.318.318,0,0,0,.054-.062.1.1,0,0,0-.071-.145.194.194,0,0,0-.116.056c-.219.214-.435.431-.65.649-.084.084-.164.172-.256.269" transform="translate(-907.863 -1722.529)" fill="#fff"/>
            <path id="Path_233822" data-name="Path 233822" d="M122.948,223.809a23.683,23.683,0,0,1-7.132-1.3,64.251,64.251,0,0,1-9.455-3.893,87.027,87.027,0,0,1-8.784-5.131c-5.722-3.772-11.233-8.189-16.563-12.461l-1.374-1.1c-5.719-4.577-11.08-7.626-18.655-7.626-.318,0-.643.006-.966.017-.245.009-.494.013-.739.013a22.445,22.445,0,0,1-9.789-2.318,33.233,33.233,0,0,1-8.718-6.29,11.035,11.035,0,0,0-7-2.873c-4.65-.108-9.262-.122-12.761-.122-1.844,0-3.718,0-5.53.009s-3.68.009-5.518.009c-1.532,0-2.9,0-4.171-.009-2.627-.013-4.155-.33-4.81-1s-.973-2.244-.973-4.931C0,114.592,0,59.279.009,5.706c0-2.67.288-4.195.905-4.8S3.12,0,5.874,0C35.659,0,65.971,0,95.97,0c29.609,0,59.745,0,89.568.006,2.755,0,4.333.289,4.966.907.618.6.913,2.125.929,4.789.01,1.739.006,3.513,0,5.228-.006,2.077-.011,4.224.009,6.344a5.632,5.632,0,0,1-.747,3.26,2.482,2.482,0,0,1-2.2.966l-.142,0a2.321,2.321,0,0,1-1.879-.606,4.688,4.688,0,0,1-.778-3.338c.089-2.021.069-4.009.047-6.113-.01-.941-.02-1.915-.02-2.91V6.091H119.775v4.786c0,1.635,0,3.226,0,4.818,0,2.738,0,5.52.008,8.211.011,6.462.021,13.144-.041,19.709-.018,1.923-.3,3.166-.833,3.693s-1.794.8-3.736.811c-6.585.027-13.161.041-19.544.041-6.545,0-13.089-.014-19.451-.043-1.925-.009-3.119-.275-3.651-.813s-.816-1.811-.832-3.77c-.057-6.911-.047-13.945-.038-20.747,0-2.825.008-5.747.007-8.622,0-1.154,0-2.309,0-3.571V6.118H6.082V174.954H8.52c1.635,0,3.3,0,4.916,0s3.3,0,4.953,0c4.256,0,9.3-.013,14.4-.112,2.2-.043,3.986-2.689,4.2-4.42a4.71,4.71,0,0,1,.536-1.824,1.848,1.848,0,0,1,.731-.7,10.782,10.782,0,0,1,4.018-.71,270.037,270.037,0,0,0,28.86-2.7c3.678-.613,7.036-2.317,10.284-3.965,1.425-.723,2.77-1.406,4.137-2l8.408-4.558-3.265-3.3-6.78,1.833c-1.436,0-2.88.057-4.277.112-1.349.053-2.745.108-4.084.108a29.293,29.293,0,0,1-4.6-.308c-6.868-1.081-11.089-5.592-13.283-14.2a3.124,3.124,0,0,1,.106-2.243,3.584,3.584,0,0,1,1.889-1.492,183.471,183.471,0,0,1,26.862-9.1,124.235,124.235,0,0,1,13.332-2.552,101.173,101.173,0,0,1,13.264-.9,88.931,88.931,0,0,1,11.464.734,84.435,84.435,0,0,1,11.44,2.307,86.389,86.389,0,0,1,11.441,4.045,95.307,95.307,0,0,1,11.465,5.958c4.947,3.005,10.145,5.705,15.171,8.317,2.145,1.115,4.364,2.267,6.523,3.423a3.229,3.229,0,0,0,1.565.363c.111,0,.214,0,.306-.007.074,0,.144,0,.2,0l.075,0,2.177.1.345-2.152a8.809,8.809,0,0,1,1.068-3.39,1.805,1.805,0,0,1,1.721-.862,4.813,4.813,0,0,1,.641.046A2.607,2.607,0,0,1,191,142.168a6.752,6.752,0,0,1,.406,3.611c-.554,5.59,2.77,7.544,5.656,8.2,3.107.7,6.266,1.462,9.321,2.194,6.917,1.658,14.07,3.372,21.219,4.626a19.475,19.475,0,0,1,4.377,1.166A2.806,2.806,0,0,1,233.363,163a2.452,2.452,0,0,1,.084,1.471,15.225,15.225,0,0,1-1.308,3.691,119.094,119.094,0,0,1-13.482,22.1,121.989,121.989,0,0,1-17.974,18.678,6.782,6.782,0,0,1-4.481,1.916,9,9,0,0,1-2.863-.54c-4.36-1.471-8.828-2.786-13.15-4.058-3.1-.912-6.3-1.854-9.416-2.841a11.05,11.05,0,0,0-3.372-.554,11.985,11.985,0,0,0-6.129,1.886c-11.22,6.446-22.247,12.432-32.775,17.792a11.947,11.947,0,0,1-5.551,1.27M66.582,186.155c4.505,0,7.886,2,11.576,4.994,1.207.981,2.425,2.022,3.6,3.029A82.168,82.168,0,0,0,90.8,201.2a277.151,277.151,0,0,0,25.468,14.769,14.67,14.67,0,0,0,6.376,1.333,14.407,14.407,0,0,0,6.224-1.289,326.641,326.641,0,0,0,30.38-16.966c3.044-1.929,5.353-2.752,7.723-2.752a12.46,12.46,0,0,1,4.382.872c5.894,2.2,12.033,3.882,17.97,5.509.961.263,1.954.536,2.929.805a10.537,10.537,0,0,0,2.731.362,5.729,5.729,0,0,0,3.886-1.208,116.067,116.067,0,0,0,25.566-31.895l.92-1.693-1.435-1.287c-.122-.109-.223-.215-.331-.327a3.391,3.391,0,0,0-1.753-1.1c-1.773-.4-3.573-.781-5.314-1.152-1.491-.318-3.034-.647-4.544-.981a144.6,144.6,0,0,1-28.412-9.679A278.106,278.106,0,0,1,156.824,140.4c-14.508-8.515-29.621-12.832-44.918-12.832a89.533,89.533,0,0,0-23.616,3.277c-5.011,1.373-9.873,2.91-15.02,4.538-2.326.736-4.732,1.5-7.158,2.242L63,138.584l1.8,2.718c2.731,4.128,6.312,6.135,10.947,6.135a25.864,25.864,0,0,0,4.165-.4c2.319-.383,4.605-.935,6.816-1.469,2.489-.6,4.841-1.169,7.239-1.517,6.925-1.006,14.241-1.808,21.745-2.386.131-.01.26-.015.384-.015a2.367,2.367,0,0,1,1.754.583,3.21,3.21,0,0,1,.647,2.26c-.033,1.48-.572,1.944-.749,2.1a4.178,4.178,0,0,1-2.544.732c-.74.025-1.479.029-2.1.029h-1.623a39.617,39.617,0,0,0-5.159.257c-1.02.134-4.48.752-6.187,3.072A53.394,53.394,0,0,1,89.845,161.3a51.082,51.082,0,0,1-11.929,6.845c-7.881,3.223-17.1,4.869-28.195,5.031a17.433,17.433,0,0,0-2.771.33c-.477.082-.969.167-1.53.247l-3.948.566,2.3,3.256a20.309,20.309,0,0,0,17.182,8.953,26.736,26.736,0,0,0,3.421-.226,17.2,17.2,0,0,1,2.2-.147M77.724,42.316h22.311c6.449,0,9.687,0,11.847-2.137s2.171-5.359,2.171-11.758V6.02H77.724Z" transform="translate(0 0.004)" fill="#1a1818"/>
            <path id="Path_233823" data-name="Path 233823" d="M1354.19,349.723c-10.267,0-19.948-3.913-28.775-11.632-6.949-6.077-11.616-13.095-13.87-20.86-2.241-7.721-2.093-16.156.44-25.073a49.676,49.676,0,0,1,5.273-12.3,40.08,40.08,0,0,1,7.868-9.372,41.764,41.764,0,0,1,10.417-6.6,54.756,54.756,0,0,1,12.987-3.861,41.689,41.689,0,0,1,7.1-.621c8.828,0,17.54,2.934,26.636,8.971l1.94,1.287,1.376-1.878c.9-1.227,1.783-2.424,2.639-3.582,1.949-2.637,3.79-5.127,5.586-7.685.834-1.188,2.072-2.6,3.24-2.6a3.168,3.168,0,0,1,1.776.743c1.12.824,1.208,1.43,1.237,1.629.125.856-.435,2.116-1.665,3.744-.815,1.079-1.592,2.188-2.344,3.262a61.72,61.72,0,0,1-3.845,5.113c-1.661,1.914-3.032,2.956-2.847,5.2.085,1.178,1.357,3.518,2.543,5.224a46.273,46.273,0,0,1,4.938,9.122,44.664,44.664,0,0,1-1.944,37.58,43.949,43.949,0,0,1-12.527,14.642,45.542,45.542,0,0,1-8.844,5.165,47.8,47.8,0,0,1-19.339,4.381m.852-84.723a40.174,40.174,0,0,0-28.383,11.675,39.35,39.35,0,0,0-1.153,54.384A39.839,39.839,0,0,0,1354.76,344h0a39.451,39.451,0,0,0,25.368-9.3c15.728-13.247,18.65-36.949,6.515-52.836l-1.916-2.509-1.943,2.488c-.387.5-.756.96-1.113,1.409-.731.92-1.421,1.788-2.077,2.688-6.94,9.519-13.882,19.069-20.4,28.035a21.184,21.184,0,0,1-2.836,3.381c-.729.634-1.074.634-1.221.634-1.073,0-3.191-1.483-4.917-2.775l-2.574-1.927c-4.586-3.432-9.328-6.98-13.965-10.5-1.8-1.368-2.889-2.714-2.982-3.694a1.914,1.914,0,0,1,.656-1.508c.969-1.079,1.652-1.2,2.081-1.2.865,0,2.022.561,3.535,1.716,3.474,2.65,6.929,5.209,10.588,7.917,1.526,1.13,3.1,2.3,4.69,3.478l1.98,1.473,26.047-35.9-1.646-1.468A35.273,35.273,0,0,0,1355.042,265" transform="translate(-1158.406 -224.536)" fill="#1a1818"/>
          </g>
        </g>
      </g>
    </g>
  </g>
</svg>
