<svg xmlns="http://www.w3.org/2000/svg" xmlns:xlink="http://www.w3.org/1999/xlink" width="360" height="332" viewBox="0 0 360 332">
  <defs>
    <clipPath id="clip-path">
      <rect id="Rectangle_22042" data-name="Rectangle 22042" width="360" height="332" transform="translate(624 236)" fill="#fff" stroke="#707070" stroke-width="1" opacity="0.5"/>
    </clipPath>
  </defs>
  <g id="Mask_Group_12784" data-name="Mask Group 12784" transform="translate(-624 -236)" clip-path="url(#clip-path)">
    <g id="Group_60156" data-name="Group 60156" transform="translate(12.54 -30.186)">
      <path id="Path_233791" data-name="Path 233791" d="M141.831-258.967c6.5-13.066,110.006,18.232,126.2,23.006,30.874,9.1,62.833-10.78,95.094-10.982a78.349,78.349,0,0,1,56.368,23.683c53.437,55.91.137,145.637-61.09,170.266-49.432,19.886-108.656,8.649-151.913-21.962-41.261-29.2-66.668-80.458-71.389-129.9q-.558-5.825-.728-11.6C133.941-230.97,135.338-245.9,141.831-258.967Z" transform="matrix(0.985, 0.174, -0.174, 0.985, 480.728, 528.016)" fill="#efefef" opacity="0.67"/>
      <path id="Path_233781" data-name="Path 233781" d="M15.114,115.569C.035,113.693.035,113.693.035,98.733c0-2.976-.093-5.953.026-8.919.269-6.506,2.894-9.188,9.451-9.265,10.671-.124,21.342-.036,32.013-.036,25.016,0,50.032.093,75.043-.14a12.13,12.13,0,0,0,7.622-3.183q36.7-36.012,73.063-72.4c2.966-2.956,6.444-6.444,10.335-3.927A30.984,30.984,0,0,1,217.8,12.079c.915,1.757-1.886,6.444-4.1,8.707-18,18.36-36.266,36.462-54.445,54.657-1.318,1.318-2.573,2.7-4.816,5.069h76.427c12.97,0,14.65,1.654,14.65,14.381,0,2.971.021,5.948,0,8.919-.062,8.335-2.61,10.9-11,11.12-1.044.026-2.083.1-4.072.191v6.046q0,41.717-.021,83.44a35.527,35.527,0,0,1-.6,7.818,9.11,9.11,0,0,1-8.253,7.57,43.208,43.208,0,0,1-5.24.191q-93.674.008-187.353,0a31.534,31.534,0,0,1-5.235-.222c-4.346-.744-7.379-3.111-8.061-7.679a54.244,54.244,0,0,1-.548-7.824q-.054-41.2-.021-82.4v-6.5m4.093-.336c-.088,1.995-.233,3.7-.233,5.405q-.023,42.508-.005,85.016c.005,8.428,1.772,10.206,10.1,10.206q48.283.016,96.56.005,45.655,0,91.315-.015c7.4,0,8.764-1.483,8.759-8.955q-.023-43.035-.005-86.065v-5.6Zm96.452-30.493H57.834c-15.74,0-31.48.088-47.216-.057C6.009,84.641,3.73,86.16,4.06,91.069c.258,3.829.047,7.694.052,11.539.005,8.211.031,8.247,8.154,8.247H232.614c1.049,0,2.1-.015,3.147-.005,3.194.031,4.764-1.2,4.578-4.739-.269-5.059-.253-10.149-.047-15.208.191-4.785-1.845-6.413-6.568-6.387-26.933.145-53.861,0-80.794.2a11.1,11.1,0,0,0-6.718,2.894c-5.545,5.064-10.728,10.531-16.04,15.854-2.734,2.744-5.8,3.777-9.472,1.953-9.245-4.609-11.229-11.854-5.043-20.675M215,12.585c-1.984-2.212-3.726-4.062-5.369-6-2.883-3.416-5.478-3.478-8.619-.047-4.6,5.023-9.575,9.71-14.392,14.541-22.592,22.665-45.112,45.4-67.839,67.932-4.325,4.289-1.9,6.7,1.137,9.891,3.142,3.287,5.436,4.547,9.353.589,27.181-27.47,54.584-54.724,81.89-82.076A58.5,58.5,0,0,0,215,12.585" transform="translate(688.454 316.886)" fill="#1a1818" stroke="#1a1818" stroke-width="1"/>
      <path id="Path_233782" data-name="Path 233782" d="M3.917,22.3H210.4v5.6q.008,43.035.01,86.065c.005,7.472-1.364,8.955-8.764,8.96q-45.655.031-91.31.01-48.283,0-96.565-.005c-8.32,0-10.092-1.778-10.092-10.206q-.023-42.508,0-85.016c.005-1.705.145-3.416.238-5.405M40.885,39.063c-3.147,3.287-3.287,58-.16,61.788,3.147-3.292,3.292-58.016.16-61.788m99.759,61.783c3.132-3.788,2.982-58.5-.165-61.783-3.126,3.777-2.982,58.5.165,61.783M108.259,38.934c-.682.026-1.364.052-2.046.072a20.011,20.011,0,0,0-.93,4.227c-.062,17.8-.088,35.594.047,53.391.01,1.385,1.287,2.759,1.974,4.139.76-1.519,2.16-3.028,2.176-4.553.155-17.446.134-34.9.041-52.342-.01-1.648-.822-3.292-1.261-4.935m-33.181.052c-.615-.062-1.235-.124-1.85-.181-.481,1.716-1.364,3.431-1.375,5.152-.1,17.275-.124,34.55.041,51.82.016,1.669,1.457,3.323,2.238,4.987C74.789,99.177,76,97.6,76.014,96c.134-17.446.109-34.9.041-52.342a23.435,23.435,0,0,0-.977-4.671m96.472,31.455c0,8.547-.109,17.1.1,25.646.036,1.571,1.323,3.111,2.036,4.661.729-1.509,2.077-3.018,2.088-4.537q.225-26.168.01-52.342c-.016-1.571-1.266-3.137-1.943-4.708-.765,1.53-2.15,3.044-2.186,4.584-.212,8.893-.1,17.8-.1,26.7" transform="translate(703.744 409.818)" fill="#fff"/>
      <path id="Path_233783" data-name="Path 233783" d="M112.408,16.577c-6.186,8.821-4.2,16.066,5.049,20.675,3.664,1.829,6.733.791,9.472-1.953,5.307-5.323,10.49-10.79,16.04-15.854a11.1,11.1,0,0,1,6.718-2.894c26.928-.2,53.861-.052,80.789-.2,4.728-.026,6.759,1.607,6.568,6.387-.2,5.064-.222,10.149.047,15.208.186,3.535-1.38,4.77-4.573,4.739-1.049-.01-2.1.005-3.152.005H9.022c-8.128,0-8.154-.031-8.159-8.247,0-3.845.207-7.7-.052-11.539C.48,18,2.764,16.484,7.368,16.526c15.74.14,31.48.052,47.216.052h57.824" transform="translate(691.699 385.042)" fill="#f58220"/>
      <path id="Path_233784" data-name="Path 233784" d="M121.094,9.363a56.6,56.6,0,0,1-3.839,4.832c-27.3,27.357-54.7,54.61-81.89,82.081-3.912,3.953-6.211,2.692-9.348-.594-3.044-3.188-5.462-5.6-1.142-9.891C47.6,63.26,70.122,40.523,92.719,17.858c4.811-4.832,9.787-9.513,14.386-14.541,3.142-3.431,5.736-3.369,8.625.047,1.638,1.943,3.385,3.793,5.364,6M36.311,90.157c-2.279-1.716-3.648-3.359-5.317-3.746-.806-.191-3.245,2.227-3.054,3,.408,1.664,1.788,3.721,3.266,4.258.925.336,2.749-1.8,5.105-3.509" transform="translate(782.358 320.103)" fill="#fff"/>
      <path id="Path_233785" data-name="Path 233785" d="M12.834,25.544c3.126,3.772,2.987,58.5-.16,61.788-3.126-3.788-2.987-58.5.16-61.788" transform="translate(731.795 423.338)" fill="#1a1818" stroke="#1a1818" stroke-width="1"/>
      <path id="Path_233786" data-name="Path 233786" d="M32.144,87.327c-3.147-3.281-3.3-58.005-.165-61.783,3.147,3.276,3.292,57.99.165,61.783" transform="translate(812.25 423.338)" fill="#1a1818" stroke="#1a1818" stroke-width="1"/>
      <path id="Path_233787" data-name="Path 233787" d="M26.353,25.519c.439,1.643,1.251,3.287,1.256,4.93.093,17.451.114,34.9-.041,52.347-.01,1.524-1.411,3.033-2.17,4.547-.687-1.375-1.964-2.749-1.974-4.134-.134-17.8-.114-35.594-.047-53.391a20.012,20.012,0,0,1,.93-4.227c.682-.026,1.364-.047,2.046-.072" transform="translate(785.655 423.233)" fill="#1a1818" stroke="#1a1818" stroke-width="1"/>
      <path id="Path_233788" data-name="Path 233788" d="M20.158,25.679a23.42,23.42,0,0,1,.971,4.671c.072,17.446.093,34.9-.047,52.342-.005,1.592-1.225,3.178-1.871,4.764-.785-1.664-2.227-3.318-2.243-4.987-.165-17.27-.145-34.545-.036-51.82.005-1.721.894-3.436,1.369-5.157l1.855.186" transform="translate(758.67 423.125)" fill="#1a1818" stroke="#1a1818" stroke-width="1"/>
      <path id="Path_233789" data-name="Path 233789" d="M36.18,56.842c0-8.9-.109-17.8.1-26.7.036-1.54,1.421-3.054,2.186-4.584.677,1.571,1.927,3.137,1.943,4.708q.209,26.176-.01,52.342c-.01,1.519-1.359,3.028-2.088,4.537-.713-1.55-2-3.09-2.036-4.661-.207-8.547-.1-17.1-.1-25.646" transform="translate(839.115 423.417)" fill="#1a1818" stroke="#1a1818" stroke-width="1"/>
      <path id="Path_233790" data-name="Path 233790" d="M31.959,21.1c-2.356,1.705-4.181,3.845-5.105,3.509-1.478-.537-2.858-2.594-3.266-4.258-.191-.77,2.248-3.188,3.054-3,1.669.388,3.038,2.031,5.317,3.746" transform="translate(786.71 389.159)" fill="#1a1818"/>
      <rect id="Rectangle_22035" data-name="Rectangle 22035" width="245.529" height="220.198" transform="translate(688.453 316.883)" fill="none"/>
      <g id="Group_48457" data-name="Group 48457" transform="translate(864.212 482.055) rotate(-1)">
        <path id="magnifiying-glass" d="M88.289,83.379l-21.8-21.795a37.641,37.641,0,1,0-4.911,4.91l21.8,21.8a3.472,3.472,0,1,0,4.91-4.91ZM6.944,37.589A30.643,30.643,0,1,1,37.588,68.23,30.679,30.679,0,0,1,6.944,37.589Z" transform="translate(0)"/>
        <ellipse id="Ellipse_2589" data-name="Ellipse 2589" cx="32.205" cy="32.602" rx="32.205" ry="32.602" transform="translate(5.284 4.762)" fill="#fff"/>
      </g>
    </g>
  </g>
</svg>
