<svg xmlns="http://www.w3.org/2000/svg" xmlns:xlink="http://www.w3.org/1999/xlink" width="360" height="332" viewBox="0 0 360 332">
  <defs>
    <clipPath id="clip-path">
      <rect id="Rectangle_22045" data-name="Rectangle 22045" width="360" height="332" transform="translate(2104 296)" fill="#fff" stroke="#707070" stroke-width="1" opacity="0.5"/>
    </clipPath>
  </defs>
  <g id="Mask_Group_12786" data-name="Mask Group 12786" transform="translate(-2104 -296)" clip-path="url(#clip-path)">
    <g id="Group_60158" data-name="Group 60158" transform="translate(-10.46 -15.907)">
      <path id="Path_233826" data-name="Path 233826" d="M141.831-258.967c6.5-13.066,110.006,18.232,126.2,23.006,30.874,9.1,62.833-10.78,95.094-10.982a78.349,78.349,0,0,1,56.368,23.683c53.437,55.91.137,145.637-61.09,170.266-49.432,19.886-108.656,8.649-151.913-21.962-41.261-29.2-66.668-80.458-71.389-129.9q-.558-5.825-.728-11.6C133.941-230.97,135.338-245.9,141.831-258.967Z" transform="matrix(0.985, 0.174, -0.174, 0.985, 1984.728, 577.736)" fill="#efefef" opacity="0.67"/>
      <path id="Path_233834" data-name="Path 233834" d="M7533.721-12433.962h-32.63l-8.43,3.672-7.58,6.457-2.856,5.71-2.311,9.518.952,7.24,6.254,10.877,5.541,3.943,4.657,3.808,9.518.951h120.19l6.934-.951-4.759-5.711-5.71-7.341-2.312-8.7v-7.749l3.943-10.2,5.71-6.255,4.76-5.269-22.945-.985Z" transform="translate(-5306.986 12969.097)" fill="#fff"/>
      <g id="Group_60160" data-name="Group 60160" transform="translate(15.098 25.129)">
        <path id="Path_233827" data-name="Path 233827" d="M55.737,155.487H27.2S8.383,160.629,9.338,177.3c0,0-4.31,24.8,24.508,26.4H150.752s24.69,5.006,33.279-12.045,0-1.73,0-1.73l3.818-8.117V7.8s-.492-7.3-18.226-4.345L62.664,2.745s-8.19,2.464-7.7,8.253Z" transform="translate(2165.483 363.808)" fill="#fff"/>
        <path id="Path_233828" data-name="Path 233828" d="M88.99,201.483q-31.386,0-62.766,0a26.657,26.657,0,0,1-17.432-6.308A25.459,25.459,0,0,1,.217,179.115c-1.678-12.892,6.485-24.654,19.411-27.969a31.163,31.163,0,0,1,7.079-.731c2.355-.04,4.929-.059,8.1-.059,1.8,0,3.618.006,5.465.011,1.913.006,3.859.012,5.848.012h1.79V106q0-47.745,0-95.491C47.914,2.946,50.827,0,58.3,0H171.01c6.874,0,10.076,3.182,10.078,10.015l.006,20.018c.014,47.473.029,96.562-.019,144.843-.015,15.663-11,26.6-26.708,26.6l-65.377,0m61.7-47.789c-.126,0-.249,0-.367.013a22.048,22.048,0,0,0-17.02,10.221,21.738,21.738,0,0,0-2.178,19.452c3.583,9.648,11.37,14.961,21.927,14.961a35.617,35.617,0,0,0,8.485-1.081c10.01-2.464,16.229-11.1,16.232-22.54q.018-74.762.005-149.523V10.428c0-5.574-1.57-7.1-7.3-7.1l-57.4,0-54.443,0c-6.068,0-7.462,1.4-7.463,7.5q0,51.568,0,103.136v36.415h26.5q35.84,0,71.679,0c.37,0,.724-.033,1.067-.065.277-.026.538-.05.747-.05.073,0,.124,0,.157.006a7.753,7.753,0,0,1,2.009,1.679,11.181,11.181,0,0,1-1.54,1.544l-.257.229c-.091,0-.184-.008-.276-.013-.19-.009-.38-.018-.562-.018m-116-.086c-3.854,0-6.995.03-9.885.093-11.025.243-20.592,9.248-21.325,20.073A22.9,22.9,0,0,0,9.3,191.2a22.547,22.547,0,0,0,16.715,6.929c13.487.024,27.891.035,45.329.035q18.255,0,36.507-.011l22.973-.009a12.712,12.712,0,0,0,1.707-.149c.24-.032.489-.066.752-.094l3.013-.322-1.735-2.484c-11.018-15.767-10.992-21.552.174-38.687l1.8-2.768H47.765q-3.263,0-6.526-.018t-6.54-.018" transform="translate(2172.224 366.59)" fill="#1a1818" stroke="#1a1818" stroke-width="1"/>
        <path id="Path_233829" data-name="Path 233829" d="M194.321,354.3c-.432,0-.864,0-1.3-.005l0-.019h-1.659c-.527,0-1.055.005-1.582.011s-1.031.01-1.545.01c-.694,0-1.266-.01-1.8-.031-3.207-.127-5.133-1.981-5.282-5.085-.154-3.209-.156-6.616-.006-10.129a5,5,0,0,1,4.952-5.2c1.772-.108,3.584-.163,5.386-.163,1.747,0,3.521.052,5.274.154,3.108.181,4.867,2.1,4.953,5.391.071,2.7.074,5.667.01,9.335-.067,3.86-1.823,5.622-5.7,5.712-.569.013-1.138.017-1.707.017m-9.7-3.2h1.809c.82,0,1.617,0,2.4.009.754,0,1.492.009,2.219.009,1.729,0,3.047-.026,4.275-.086a3.684,3.684,0,0,0,3.107-3.116c.1-2.214.089-4.434.076-6.581q-.007-1.082-.009-2.155v-1.809H184.624Z" transform="translate(2055.752 152.584)" fill="#1a1818"/>
        <path id="Path_233830" data-name="Path 233830" d="M364.545,356.412c-6.032,0-12.1-.01-18.036-.029a3.311,3.311,0,0,1-2.361-.69,1.087,1.087,0,0,1-.242-.913c.1-1.059.341-1.753,2.665-1.753h.106c2.242.022,4.675.032,7.659.032q2.566,0,5.132-.006t5.124-.006h.039q2.519,0,5.038,0,2.554,0,5.107,0,3.754,0,7.509-.02h.078c2.383,0,2.536.648,2.589,1.7.038.753-.187.989-.26,1.068a3.487,3.487,0,0,1-2.321.578c-5.963.018-11.96.028-17.825.028" transform="translate(1951.809 140.245)" fill="#1a1818"/>
        <path id="Path_233831" data-name="Path 233831" d="M276.3,356.423c-2.436,0-4.909-.044-7.35-.131a1.577,1.577,0,0,1-1.119-.44,1.6,1.6,0,0,1-.337-1.168,1.523,1.523,0,0,1,1.71-1.595c.8-.026,1.674-.039,2.738-.039.676,0,1.352.005,2.028.01s1.369.01,2.054.01h.167c.637,0,1.274-.006,1.91-.012.684-.005,1.368-.011,2.052-.011.938,0,1.713.011,2.436.034,1.487.048,1.785.624,1.816,1.669.022.75-.138,1.522-1.5,1.566-2.187.07-4.412.107-6.611.107" transform="translate(2000.578 140.232)" fill="#1a1818"/>
        <path id="Path_233832" data-name="Path 233832" d="M194.2,518.687c-.2,0-.394-.006-.587-.01-.217-.005-.429-.01-.631-.01q-20.4.017-40.783.014H128.061l-.826,0c-.224,0-.516,0-.793-.025-2.138-.169-2.1-1.267-2.075-1.795.019-.484.058-1.493,2-1.5q7.637-.009,15.272-.012h32.416q9.344,0,18.688.005c.336,0,.657-.023.968-.046.263-.02.513-.037.724-.037a1.844,1.844,0,0,1,.267.015,5.239,5.239,0,0,1,1.676,1.576,4.505,4.505,0,0,1-1.361,1.75,3.1,3.1,0,0,1-.815.067" transform="translate(2091.924 36.689)" fill="#1a1818"/>
        <path id="Path_233833" data-name="Path 233833" d="M72.593,518.719a17.744,17.744,0,0,1-3.565-.354,3.447,3.447,0,0,1-1.26-1.5,5.832,5.832,0,0,1,2.022-1.608,1.333,1.333,0,0,1,.527-.064c.3,0,.662.033,1.039.068.443.041.9.084,1.376.084a13.007,13.007,0,0,0,1.314-.086c.349-.035.679-.068.951-.068a1.177,1.177,0,0,1,.345.031,6.227,6.227,0,0,1,2.012,1.679,3.434,3.434,0,0,1-1.275,1.483,17.912,17.912,0,0,1-3.486.336" transform="translate(2128.045 36.746)" fill="#1a1818"/>
        <g id="Group_18114" data-name="Group 18114" transform="translate(2261.856 397.053)">
          <path id="Path_53692" data-name="Path 53692" d="M-4967.757-10762.624s-13.83-12.338-21.6-2.7,6.762,32.789,15.72,35.494,5.678,1.421,10.411.152,4.8-2.181,8.52-5.224,15.551-17.577,11.325-26.536-16.058-10.142-17.916-7.1S-4967.757-10762.624-4967.757-10762.624Z" transform="translate(4994.2 10771.62)" fill="#f58220"/>
          <path id="Path_53691" data-name="Path 53691" d="M763.469,58.668a1.9,1.9,0,0,1-.965-.264c-12.921-7.62-20.338-18.328-20.349-29.378a14.171,14.171,0,0,1,26.193-7.519l.244.391.251-.387a14.163,14.163,0,0,1,26.2,7.46c.011,11.082-7.211,21.526-20.337,29.408a1.9,1.9,0,0,1-1.961-3.264c6.911-4.15,18.5-13.065,18.49-26.139a10.37,10.37,0,0,0-19.389-5.1c-.105.161-.2.3-.243.354a3.912,3.912,0,0,1-2.964,1.472,4.238,4.238,0,0,1-3.016-1.423,3.973,3.973,0,0,1-.243-.36,10.417,10.417,0,0,0-7.673-5.172,10.606,10.606,0,0,0-1.406-.095,10.368,10.368,0,0,0-10.337,10.373c.014,13.731,12.926,22.828,18.476,26.1a1.9,1.9,0,0,1,.672,2.607A1.913,1.913,0,0,1,763.469,58.668Z" transform="translate(-742.155 -14.814)"/>
        </g>
      </g>
      <rect id="Rectangle_22041" data-name="Rectangle 22041" width="201.343" height="223.993" transform="translate(2171.204 365.46)" fill="none"/>
    </g>
  </g>
</svg>
