<svg xmlns="http://www.w3.org/2000/svg" width="36" height="36" viewBox="0 0 36 36">
  <g id="Group_60226" data-name="Group 60226" transform="translate(0 0)">
    <g id="Group_46282" data-name="Group 46282" transform="translate(0 0)">
      <g id="Group_46272" data-name="Group 46272">
        <circle id="Ellipse_1608" data-name="Ellipse 1608" cx="18" cy="18" r="18" fill="#fd3832"/>
      </g>
      <path id="Path_163925" data-name="Path 163925" d="M221.407,161.316a2.306,2.306,0,0,1-1.522-1.477c-.658-1.812-.853-9.39.415-10.883a2.459,2.459,0,0,1,1.656-.879c3.418-.368,13.981-.315,15.2.123a2.381,2.381,0,0,1,1.494,1.438c.721,1.872.746,8.685-.1,10.49a2.317,2.317,0,0,1-1.072,1.082C236.208,161.878,223.084,161.869,221.407,161.316Zm5.429-3.551,6.155-3.192-6.155-3.212Z" transform="translate(-211.277 -136.776)" fill="#fff" fill-rule="evenodd"/>
    </g>
  </g>
</svg>
